PathFileType	4	(X/Y/Z)	Patient4_TMGait_0pt6_01_right_23.trc.trc
DataRate	CameraRate	NumFrames	NumMarkers	Units	OrigDataRate	OrigDataStartFrame	OrigNumFrames
82.840236686391	82.840236686391	4	33	mm	82.840236686391	124	       141
Frame#	Time	Sacral			L.Shoulder			Chest			R.Shoulder			Neck			R.ASIS			L.ASIS			R.Thigh.Superior			R.Thigh.Lateral			R.Thigh.Inferior			R.Patella			L.Thigh.Superior			L.Thigh.Lateral			L.Thigh.Inferior			L.Patella			L.Shank.Superior			L.Shank.Lateral			L.Shank.Inferior			R.Shank.Superior			R.Shank.Lateral			R.Shank.Inferior			R.Heel			R.Midfoot.Superior			R.Midfoot.Lateral			R.Toe			L.Heel			L.Midfoot.Lateral			L.Midfoot.Superior			L.Toe			L.Elbow			L.Wrist			R.Elbow			R.Wrist			
		X1	Y1	Z1	X2	Y2	Z2	X3	Y3	Z3	X4	Y4	Z4	X5	Y5	Z5	X6	Y6	Z6	X7	Y7	Z7	X8	Y8	Z8	X9	Y9	Z9	X10	Y10	Z10	X11	Y11	Z11	X12	Y12	Z12	X13	Y13	Z13	X14	Y14	Z14	X15	Y15	Z15	X16	Y16	Z16	X17	Y17	Z17	X18	Y18	Z18	X19	Y19	Z19	X20	Y20	Z20	X21	Y21	Z21	X22	Y22	Z22	X23	Y23	Z23	X24	Y24	Z24	X25	Y25	Z25	X26	Y26	Z26	X27	Y27	Z27	X28	Y28	Z28	X29	Y29	Z29	X30	Y30	Z30	X31	Y31	Z31	X32	Y32	Z32	X33	Y33	Z33	

124	28.904785714286	640.343185971692	993.402607052382	475.195520549360	810.432261377189	1427.540009210479	302.671533964345	908.080245943104	1358.750699629462	466.620182524935	815.290880468336	1427.144284866128	637.393431142376	789.675554513493	1486.189804575809	456.172048951045	864.388006730941	933.767114361228	599.107995078552	856.742765765655	954.073538469211	323.227161420645	934.153782052543	752.968346600244	570.870326461240	879.570556914618	630.942616475348	635.821044781102	968.762696095524	594.037157817085	557.022106471665	994.565416687851	508.684716725232	569.425486512359	855.509282181676	724.754940067918	351.139919798670	733.407524461275	632.617286335899	293.777036505021	791.271390464084	538.096685395207	357.334746099760	774.320100061776	470.266507893325	367.671970700401	738.143249329656	406.007170549998	361.766774518630	629.877855573148	304.900914169106	316.788930140261	668.270813272026	189.117989016769	389.868427321226	976.640369790239	418.773734771379	577.147218984605	917.303389483495	304.174449542981	632.154994988024	985.523856574746	218.647214294660	579.352660777685	886.386298266985	40.344728130643	539.986429780795	1048.436767746516	106.128169907781	587.656805358738	964.990633321284	37.023474429812	620.122592566589	1169.811060927104	62.212678824187	624.530949725142	527.201133231230	39.714782282875	441.103318460292	599.549918187499	34.779717129291	359.363257721763	684.485067834388	95.237242852713	382.965797563145	811.627695046953	40.812425169703	353.057605131170	881.602228832230	1094.999712304674	157.122266426021	1130.927169331319	1023.813574071769	157.650765524719	673.364243701355	1112.940264011051	740.127944180598	631.183853852457	855.393491360346	746.930344733875	
125	28.916857142857	641.622446845025	992.758747707651	477.044744925103	810.695788378496	1427.025353132873	304.626604703353	908.728620570189	1358.412441396190	468.472710629048	815.815889444428	1426.390970844424	639.405285013269	790.209048633353	1485.723151073056	458.199806256539	865.714768506824	933.206066780010	601.010710042768	858.038008032123	953.325034761386	325.107993384656	935.331361910655	751.638189300630	573.151247042640	878.013843719574	629.645017161121	636.325529474052	967.943243160580	592.771173506731	558.531394549378	991.550794519476	506.920742303645	569.744486747743	857.004491319116	724.086143097883	352.547478225241	734.681158006973	631.948722734797	295.431968470835	792.755458173797	537.061026957737	358.568483063142	775.694342374996	468.342659878955	368.602943746649	737.756255633349	404.591260511563	362.740647275177	627.357041796365	305.825455525224	317.640245505823	663.444552155939	188.913705145478	389.994361930164	973.736130349140	416.780781940545	577.307895826976	913.655480894737	302.480294612110	631.953119278626	981.072840367738	216.708451957573	578.779540767051	879.904140612703	40.409192211253	539.007680194058	1042.439558326782	104.400483563606	586.298571704348	958.305820603238	36.582600623453	619.377427452016	1163.603536179184	58.665906857304	623.636823864355	519.956116199176	41.182212720808	440.759599404275	592.376928482369	35.172170287645	359.252915248917	677.756588785599	95.292273573377	382.642087177309	804.485967919728	40.304202196945	352.960647183019	879.780275228823	1093.202856697364	159.927802748547	1128.496296237147	1019.545110695721	160.439483286368	677.786408627604	1109.843833371166	742.222251298461	639.233354691948	851.738574121977	749.240363354978	
126	28.928928571429	642.924582806760	992.478763553169	479.034218388366	810.967088570776	1426.864328403899	306.701551877990	909.445834666262	1358.404721568983	470.403873631937	816.501594168170	1425.954311647896	641.542485518792	790.803973595532	1485.596730433673	460.359454934527	867.108888794887	932.996202770044	602.969603356935	859.267577867268	952.884420390259	327.063528309121	936.708926469815	750.810492297184	575.311389894148	876.935936005591	628.930164124407	636.946213401285	967.390634241813	591.941592948817	559.998528849130	988.863782209773	505.513797844693	570.165520721057	858.838170278004	723.751622845290	354.001962665030	736.518903797709	631.351853187423	297.178698161361	795.166028541479	536.177754305283	359.789797047942	778.115955329646	466.424983346729	369.366482497579	738.154842337595	403.248895389546	363.642791389387	625.428885667279	307.121804006847	318.511142663152	659.022545334714	189.004457516659	390.045996288630	970.937146424357	415.158272142824	577.566836789394	910.038227209809	301.337286395806	632.198047983900	976.186453047867	215.097468618951	578.434986429916	872.511839239860	40.665159934758	538.443118876118	1035.588730037948	102.987171624396	585.367089808014	950.756636813876	36.369445395669	619.021013317569	1156.547026206238	55.600605869851	623.097428366623	512.815431753770	43.400559097572	440.359916871483	585.246252081391	35.898874325127	359.118842578889	671.288907828310	95.449350102640	382.156592915540	797.321019660643	39.772797743878	352.854947418366	877.558341699195	1091.605257573064	162.999741034366	1125.336969893747	1014.296407352722	163.284278745481	682.908331929261	1106.791865542709	744.404199810800	648.589645395707	848.050708349532	751.608214412491	
127	28.941000000000	644.215367036525	992.596828769644	481.154331798405	811.274225963482	1427.082066413009	308.880138910431	910.232715692021	1358.736346213721	472.403588743133	817.361090171129	1425.880248976765	643.779608879678	791.455300427017	1485.830852050136	462.626569529196	868.532624922899	933.155290822815	604.980353750218	860.395650420636	952.801620473223	329.085460526934	938.117211266305	750.421635350302	577.329148655363	876.223015282667	628.763858856118	637.737862137240	966.895907272114	591.459369405225	561.404637808153	986.344691251502	504.458120893616	570.717882686563	861.000584808241	723.793135367899	355.504177758626	739.004171918350	630.827592498232	298.979279694207	798.628443969053	535.479230422460	360.973040955387	781.713612351500	464.549670161127	369.904510467569	739.469562552335	402.007121079584	364.425175743165	624.226819085134	308.852189056819	319.364950707510	655.117147755045	189.471969522196	389.995366687982	968.151914277545	413.915560284355	577.954713332075	906.455197790905	300.674997427320	632.853059827000	971.024349463883	213.833030703801	578.323547964708	864.650587508937	40.987929234974	538.248167849659	1028.292863903610	101.877094105679	584.881558537148	942.788839258529	36.302540655828	618.992177444701	1149.037915670457	53.165180597705	622.867474927312	505.861875840304	46.566263482900	439.894811800256	578.199712449524	37.098096832904	358.950789429638	665.160014286038	95.749143343843	381.494301335235	790.126693345031	39.237188741500	352.749887245257	874.949162419030	1090.270191304726	166.330872024019	1121.398309627740	1008.135778093282	166.174552477601	688.697978082202	1103.897696003136	746.651051285320	659.209617148838	844.476857904270	754.000754674270	
